<?xml version="1.0" encoding="UTF-8"?>
<!DOCTYPE svg PUBLIC "-//W3C//DTD SVG 1.1//EN" "http://www.w3.org/Graphics/SVG/1.1/DTD/svg11.dtd">
<!-- Creator: CorelDRAW 2020 (64 Bit) -->
<svg xmlns="http://www.w3.org/2000/svg" xml:space="preserve" width="41.513mm" height="43.997mm" version="1.1" shape-rendering="geometricPrecision" text-rendering="geometricPrecision" image-rendering="optimizeQuality" fill-rule="evenodd" clip-rule="evenodd"
viewBox="0 0 4151.3 4399.7"
 xmlns:xlink="http://www.w3.org/1999/xlink"
 xmlns:xodm="http://www.corel.com/coreldraw/odm/2003">
 <g id="Camada_x0020_1">
  <metadata id="CorelCorpID_0Corel-Layer"/>
  <path fill="#4B4B4D" stroke="#4B4B4D" stroke-width="20" stroke-miterlimit="22.9256" d="M2147.3 3260.58c315.89,-12.13 556.88,-397.03 200.46,-545.14 -129.94,-53.99 -259.57,-66.19 -397.23,-97.43 -693.59,-157.37 36.31,-387.05 80.59,-478.8 -235.13,-138.93 -851.83,369.7 -215.77,555.91 195.7,57.29 831.05,138.28 423.9,440.77 -129.84,96.46 -50.65,-11.5 -91.95,124.69z"/>
  <path fill="#4B4B4D" d="M2167.35 3773.25c134.85,63.41 392.55,-204.08 46.29,-451.83 -164.22,-117.51 -429.28,-203.61 -446.37,-397.07 64.12,-111.71 117.06,-82.19 150.38,-190.7 -252.35,-114.39 -465.67,274.81 -49.12,511.6 215.81,122.68 556.12,228.21 360.29,438.41 -77.37,83.05 -33.34,-23.52 -61.47,89.59z"/>
  <path fill="#4B4B4D" stroke="#4B4B4D" stroke-width="20" stroke-miterlimit="22.9256" d="M2257.7 1044.17c20.37,98.68 -54.78,28.87 69.78,79.09 1.14,0.47 106.7,24.14 120.43,27.67 -5.55,4.05 -15.11,-0.75 -18.44,7.97 -7.11,18.64 -90.44,8.33 -139.65,44.44 77.94,73.49 425.21,162.2 373.06,466.77 -31.29,182.75 -194.09,244.81 -337.82,294.3 -734.19,260.56 1040.8,236.12 364.46,-782.53 -103.72,-110.79 -230.05,-213.26 -431.82,-137.71z"/>
  <polygon fill="#FEFEFE" stroke="#373435" stroke-width="20" stroke-miterlimit="22.9256" points="2211.92,805.57 2056.67,0.52 1938.98,821.39 2082.43,1265.77 "/>
  <polygon fill="#FEFEFE" stroke="#373435" stroke-width="20" stroke-miterlimit="22.9256" points="2299.74,3533.09 2081.24,2222.07 1871.48,3568.52 2085.61,4294.86 "/>
  <polygon fill="#00AFEF" stroke="#373435" stroke-width="20" stroke-miterlimit="22.9256" points="2299.74,3128.49 2081.24,1817.47 1871.48,3163.93 2085.61,3890.27 "/>
  <polygon fill="#FEFEFE" stroke="#373435" stroke-width="20" stroke-miterlimit="22.9256" points="2299.74,2714.7 2081.24,1403.68 1871.48,2750.14 2085.61,3476.48 "/>
  <polygon fill="#00AFEF" stroke="#373435" stroke-width="20" stroke-miterlimit="22.9256" points="2299.74,2246.32 2081.24,935.3 1871.48,2281.76 2085.61,3008.1 "/>
  <path fill="#00AFEF" stroke="#373435" stroke-width="20" stroke-miterlimit="22.9256" d="M4144.18 716.62c-423.66,-161.18 -468.25,-286.5 -702.36,-429.75l-268.97 132.15c276.76,165.06 722,353.07 971.33,297.6z"/>
  <path fill="#00AFEF" stroke="#373435" stroke-width="20" stroke-miterlimit="22.9256" d="M3685.83 1216.15c-360.13,-275.26 -413.48,-461.62 -597.05,-665.66l-249.14 103.53c218.22,237.1 591.4,544.22 846.19,562.13z"/>
  <path fill="#00AFEF" stroke="#373435" stroke-width="20" stroke-miterlimit="22.9256" d="M3864.07 1045.12c-366.64,-266.53 -435.1,-412.86 -623.52,-612.44l-235.93 70.78c223.86,231.79 604.3,529.87 859.45,541.66z"/>
  <path fill="#00AFEF" stroke="#373435" stroke-width="20" stroke-miterlimit="22.9256" d="M3463.36 1246.52c-360.13,-275.25 -379.56,-366.74 -563.13,-570.78l-295.47 50c218.22,237.1 603.81,502.88 858.6,520.78z"/>
  <path fill="#00AFEF" stroke="#373435" stroke-width="20" stroke-miterlimit="22.9256" d="M3401.66 306.61c-300.28,87.21 -804.25,169.11 -852.18,388.09 -20.67,94.46 -166.14,129.98 -232.16,199.63 365.7,-2.47 792.58,-360.42 1084.34,-587.72z"/>
  <path fill="#00AFEF" stroke="#373435" stroke-width="20" stroke-miterlimit="22.9256" d="M4144.18 716.62c-423.66,-161.18 -468.25,-286.5 -702.36,-429.75l-268.97 132.15c276.76,165.06 722,353.07 971.33,297.6z"/>
  <path fill="#00AFEF" stroke="#373435" stroke-width="20" stroke-miterlimit="22.9256" d="M3685.83 1216.15c-360.13,-275.26 -413.48,-461.62 -597.05,-665.66l-249.14 103.53c218.22,237.1 591.4,544.22 846.19,562.13z"/>
  <path fill="#00AFEF" stroke="#373435" stroke-width="20" stroke-miterlimit="22.9256" d="M3864.07 1045.12c-366.64,-266.53 -435.1,-412.86 -623.52,-612.44l-235.93 70.78c223.86,231.79 604.3,529.87 859.45,541.66z"/>
  <path fill="#00AFEF" stroke="#373435" stroke-width="20" stroke-miterlimit="22.9256" d="M3463.36 1246.52c-360.13,-275.25 -379.56,-366.74 -563.13,-570.78l-295.47 50c218.22,237.1 603.81,502.88 858.6,520.78z"/>
  <path fill="#00AFEF" stroke="#373435" stroke-width="20" stroke-miterlimit="22.9256" d="M3401.66 306.61c-300.28,87.21 -804.25,169.11 -852.18,388.09 -20.67,94.46 -166.14,129.98 -232.16,199.63 365.7,-2.47 792.58,-360.42 1084.34,-587.72z"/>
  <path fill="#00AFEF" stroke="#373435" stroke-width="20" stroke-miterlimit="22.9256" d="M-7.15 718.72c423.66,-161.18 468.25,-286.5 702.36,-429.75l268.97 132.15c-276.76,165.06 -722,353.07 -971.33,297.6z"/>
  <path fill="#00AFEF" stroke="#373435" stroke-width="20" stroke-miterlimit="22.9256" d="M451.2 1218.25c360.13,-275.26 413.48,-461.62 597.05,-665.66l249.14 103.53c-218.22,237.1 -591.4,544.22 -846.19,562.13z"/>
  <path fill="#00AFEF" stroke="#373435" stroke-width="20" stroke-miterlimit="22.9256" d="M272.96 1047.22c366.64,-266.53 435.1,-412.86 623.52,-612.44l235.93 70.78c-223.86,231.79 -604.3,529.87 -859.45,541.66z"/>
  <path fill="#00AFEF" stroke="#373435" stroke-width="20" stroke-miterlimit="22.9256" d="M673.67 1248.62c360.13,-275.25 379.56,-366.74 563.13,-570.78l295.47 50c-218.22,237.1 -603.81,502.88 -858.6,520.78z"/>
  <path fill="#00AFEF" stroke="#373435" stroke-width="20" stroke-miterlimit="22.9256" d="M735.37 308.71c300.28,87.21 804.25,169.11 852.18,388.09 20.67,94.46 166.14,129.98 232.16,199.63 -365.7,-2.47 -792.58,-360.42 -1084.34,-587.72z"/>
  <path fill="#4B4B4D" d="M2163.68 3958.94c4.62,176.27 -128.87,303.3 -136.97,441.29 109.05,-28.82 233.53,-322.55 228.49,-472.45 -99.58,-263.65 -493.09,-56.31 -325.32,-565.72 -145.71,-73.34 -215.04,179.43 -106.62,333.05 96.8,137.12 225.47,136.87 340.42,263.83z"/>
  <path fill="#4B4B4D" d="M1819.56 1956.9c-135.44,-59.58 -318.63,-144.77 -295.86,-383.99 22.06,-231.73 223.72,-250.67 331.82,-373.08 -77.57,-55.4 -50.8,8.29 -127.53,-48.29 226.54,-101.73 136.79,-5.47 178.02,-124.79 -476.74,-116.32 -839.63,727.59 -317.12,1010.27 180.16,97.46 421.53,156.04 616.88,244.13 250.15,112.8 422.5,214.1 128.35,377.72 -5.97,3.32 -23.31,13.19 -28.97,16.95 -169.85,113.21 1079.82,-30.12 -485.59,-718.92z"/>
 </g>
</svg>
